<?xml version="1.0" encoding="utf-8"?>
<!-- Generator: Adobe Illustrator 25.4.1, SVG Export Plug-In . SVG Version: 6.00 Build 0)  -->
<svg version="1.1" xmlns="http://www.w3.org/2000/svg" xmlns:xlink="http://www.w3.org/1999/xlink" x="0px" y="0px"
	 viewBox="0 0 295.1 196.9" style="enable-background:new 0 0 295.1 196.9;" xml:space="preserve">
<style type="text/css">
	.st0{fill:#070808;}
	.st1{fill:#FFFFFF;}
	.st2{fill:none;stroke:#030303;stroke-miterlimit:10;}
	.st3{fill:#EFBEB8;}
	.st4{fill:#A0D9DA;}
	.st5{fill:none;stroke:#9FD9DA;stroke-width:2;stroke-miterlimit:10;}
	.st6{fill:#A0D9DA;stroke:#99D9D9;stroke-miterlimit:10;}
	.st7{fill:#FFFFFF;stroke:#99D9D9;stroke-miterlimit:10;}
	.st8{fill:#030303;}
	.st9{fill:#E3B9B3;}
	.st10{fill:#99D9D9;}
</style>
<g id="black_logo">
	<path class="st0" d="M561.1-287c-0.4,0-0.8-0.3-1.3-0.8c-0.2-0.2-0.3-0.4-0.3-0.6c0-0.1,0-0.2,0.1-0.2c1.9-1.8,2.9-3,2.9-3.6
		c0-0.4-0.4-0.6-1.2-0.6c-0.9,0-2.2,0.2-3.9,0.5c-4.6,0.9-9.1,2.7-13.5,5.3c-0.4,0.3-0.8,0.5-1.2,0.8c-2.9,1.9-5.1,3.8-6.5,5.7
		c-0.8,1.2-1.2,2.2-1.2,3.2c0,0.2,0,0.4,0.1,0.6c0.2,1.1,1.3,2.1,3.4,3c0.4,0.2,2,0.8,4.8,1.7c3.1,1.1,5.3,2.3,6.6,3.4
		c1.3,1.3,2,2.8,2,4.5c0,2.1-1.2,4.1-3.7,6c-2.3,1.8-4.8,3-7.8,3.6c-1.1,0.3-2.2,0.4-3.1,0.4c-0.5,0-1,0-1.5-0.1
		c-2.2-0.4-3.7-1.5-4.6-3.2c-0.1-0.2-0.1-0.3-0.1-0.3c0-0.2,0.1-0.3,0.3-0.3c0.4,0,0.9,0.2,1.3,0.7c0.1,0.1,0.2,0.3,0.3,0.4
		c0.3,0.5,0.9,0.9,1.9,1.1c0.4,0.1,0.8,0.1,1.3,0.1c2.3,0,4.9-0.7,7.6-2.2c2.7-1.4,4.5-3,5.6-4.8c0.5-0.9,0.7-1.7,0.7-2.5
		c0-1.6-1-2.9-2.9-3.9c-0.8-0.4-2.5-1.1-5.1-2c-2.9-1-5.1-2.1-6.3-3.1c-0.8-0.6-1.4-1.3-1.8-2c-0.5-0.7-0.7-1.5-0.7-2.2
		c0-2.4,1.9-5.1,5.8-8c0.7-0.5,1.4-1,2.1-1.4c4.2-2.7,8.7-4.6,13.4-5.8c0.5-0.1,1-0.2,1.5-0.4c1.8-0.3,3.1-0.5,3.9-0.5
		c1.6,0,2.8,0.4,3.6,1.1c0.5,0.4,0.7,1,0.7,1.6c0,1.2-0.8,2.7-2.4,4.3l-0.3,0.3C561.3-287.1,561.2-287,561.1-287z"/>
	<g>
		<path class="st0" d="M494.5-265.9c0,0,3.3-5.4,3.3-5.5c-3.8-8.2,6.3-19.1,11.5-22.7c11.7,2.3,29.6-3.9,29.3-4.6
			c-0.3-0.7-18.4,7-25.9,2.9c4.4,1.8,8.4,1.2,19.7-6c0.6-0.4,7.3-2.9,6.7-2.7c-9.5,3.8,17.6-8,21.2-12c0,0,0,0,0,0
			c2.9-2.2,5.5-2.6,7.9,0.7c0,0,0.1,0,0.1,0c-1.9-3.8-5.6-5.8-8.5-6.5c0,0,0,0,0,0c-21.1-6.1-37.6-2.8-50.9,7.1c0,0,0,0.1,0.1,0.1
			l10.7-3.1c0.1,0,0.1,0.1,0,0.1c-9.1,6.5-14.4,13.6-11,21.9c0,0,0,0,0,0.1C489.3-278.2,498.7-275.4,494.5-265.9z"/>
		<g>
			<path class="st1" d="M507.9-295.3c8.7-12.9,27-19,43.3-21.8C535.9-315.4,507.9-295.3,507.9-295.3z"/>
		</g>
	</g>
	<path class="st0" d="M498.8-338c-0.1,0.1-0.2,0.1-0.3,0.1c-0.4,0-0.8-0.2-1.2-0.7c-0.2-0.2-0.3-0.4-0.3-0.6c0-0.1,0.1-0.2,0.1-0.2
		c1.2-0.9,2.2-1.9,3-3.1c0.7-1,1-1.7,1-2.3c-0.1,0-0.3,0-0.6,0c-2,0-4.6,0.8-7.5,2.5c-2.8,1.6-5,3.4-6.5,5.3c-1,1.3-1.5,2.4-1.5,3.5
		c0,0.2,0,0.3,0.1,0.6c0.2,0.6,1.3,1,3.4,1c2,0,3.8-0.2,5.5-0.5l0.1,0c0.4,0,0.8,0.3,1.2,0.8c0.2,0.2,0.2,0.4,0.3,0.6
		c0,0.1-0.1,0.2-0.1,0.2c-3.3,1.9-6.6,4.3-10,6.9c-6.3,5-9.4,8.9-9.5,11.8c0,0.3,0,0.6,0.1,0.9c0.2,0.5,0.7,0.8,1.6,0.8
		c1.9,0,4.9-0.9,9.1-2.8c0.5-0.2,0.9-0.4,1.2-0.6c5.5-2.9,11.5-7,17.7-12.5c0.2-0.2,0.5-0.1,1,0.2c0.1,0.1,0.2,0.1,0.2,0.2
		c0.4,0.4,0.6,0.7,0.5,1c0,0,0,0.1-0.1,0.1c-6.3,5.5-12.3,9.7-17.8,12.6c-4.2,2.2-7.7,3.3-10.5,3.3c-1,0-1.8-0.1-2.4-0.4
		c-1.6-0.8-2.5-1.9-2.5-3.5c0-0.5,0.1-1.1,0.3-1.7c1.1-3.5,5.1-7.7,12-12.8c1.4-1,2.8-1.9,4.2-2.9h-0.4c-3.3,0-5.5-0.7-6.5-2.2
		c-0.2-0.4-0.4-0.8-0.5-1.2c0-0.2-0.1-0.4-0.1-0.7c0-2,1.3-4.1,4-6.4c2.4-2,5-3.5,7.9-4.6c1.7-0.6,3.1-0.9,4.3-0.9h0.1
		c1.2,0,2.1,0.4,2.8,1.1c0.3,0.3,0.5,0.7,0.6,1.1c0,0.2,0.1,0.4,0.1,0.5c0,1.3-0.9,2.8-2.8,4.6C499.7-338.7,499.2-338.3,498.8-338z"
		/>
	<polyline class="st2" points="502.4,-347.9 520.6,-366.1 582.6,-304.1 552.9,-274.3 	"/>
	<polyline class="st2" points="532.5,-254 520.6,-242 458.5,-304.1 483.4,-329 	"/>
</g>
<g id="color_logo">
	<path class="st3" d="M125.1-269.4c-0.4,0-0.8-0.3-1.3-0.8c-0.2-0.2-0.3-0.4-0.3-0.6c0-0.1,0-0.2,0.1-0.2c1.9-1.8,2.9-3,2.9-3.6
		c0-0.4-0.4-0.6-1.2-0.6c-0.9,0-2.2,0.2-3.9,0.5c-4.6,0.9-9.1,2.7-13.5,5.3c-0.4,0.3-0.8,0.5-1.2,0.8c-2.9,1.9-5.1,3.8-6.5,5.7
		c-0.8,1.2-1.2,2.2-1.2,3.2c0,0.2,0,0.4,0.1,0.6c0.2,1.1,1.3,2.1,3.4,3c0.4,0.2,2,0.8,4.8,1.7c3.1,1.1,5.3,2.3,6.6,3.4
		c1.3,1.3,2,2.8,2,4.5c0,2.1-1.2,4.1-3.7,6c-2.3,1.8-4.8,3-7.8,3.6c-1.1,0.3-2.2,0.4-3.1,0.4c-0.5,0-1,0-1.5-0.1
		c-2.2-0.4-3.7-1.5-4.6-3.2C95-239.9,95-240,95-240c0-0.2,0.1-0.3,0.3-0.3c0.4,0,0.9,0.2,1.3,0.7c0.1,0.1,0.2,0.3,0.3,0.4
		c0.3,0.5,0.9,0.9,1.9,1.1c0.4,0.1,0.8,0.1,1.3,0.1c2.3,0,4.9-0.7,7.6-2.2c2.7-1.4,4.5-3,5.6-4.8c0.5-0.9,0.7-1.7,0.7-2.5
		c0-1.6-1-2.9-2.9-3.9c-0.8-0.4-2.5-1.1-5.1-2c-2.9-1-5.1-2.1-6.3-3.1c-0.8-0.6-1.4-1.3-1.8-2c-0.5-0.7-0.7-1.5-0.7-2.2
		c0-2.4,1.9-5.1,5.8-8c0.7-0.5,1.4-1,2.1-1.4c4.2-2.7,8.7-4.6,13.4-5.8c0.5-0.1,1-0.2,1.5-0.4c1.8-0.3,3.1-0.5,3.9-0.5
		c1.6,0,2.8,0.4,3.6,1.1c0.5,0.4,0.7,1,0.7,1.6c0,1.2-0.8,2.7-2.4,4.3l-0.3,0.3C125.3-269.5,125.2-269.4,125.1-269.4z"/>
	<g>
		<path class="st4" d="M58.5-248.3c0,0,3.3-5.4,3.3-5.5c-3.8-8.2,6.3-19.1,11.5-22.7c11.7,2.3,29.6-3.9,29.3-4.6
			c-0.3-0.7-18.4,7-25.9,2.9c4.4,1.8,8.4,1.2,19.7-6c0.6-0.4,7.3-2.9,6.7-2.7c-9.5,3.8,17.6-8,21.2-12c0,0,0,0,0,0
			c2.9-2.2,5.5-2.6,7.9,0.7c0,0,0.1,0,0.1,0c-1.9-3.8-5.6-5.8-8.5-6.5c0,0,0,0,0,0c-21.1-6.1-37.6-2.8-50.9,7.1c0,0,0,0.1,0.1,0.1
			l10.7-3.1c0.1,0,0.1,0.1,0,0.1c-9.1,6.5-14.4,13.6-11,21.9c0,0,0,0,0,0.1C53.2-260.6,62.6-257.8,58.5-248.3z"/>
		<g>
			<path class="st1" d="M71.8-277.7c8.7-12.9,27-19,43.3-21.8C99.9-297.8,71.8-277.7,71.8-277.7z"/>
		</g>
	</g>
	<path class="st3" d="M62.7-320.4c-0.1,0.1-0.2,0.1-0.3,0.1c-0.4,0-0.8-0.2-1.2-0.7c-0.2-0.2-0.3-0.4-0.3-0.6c0-0.1,0.1-0.2,0.1-0.2
		c1.2-0.9,2.2-1.9,3-3.1c0.7-1,1-1.7,1-2.3c-0.1,0-0.3,0-0.6,0c-2,0-4.6,0.8-7.5,2.5c-2.8,1.6-5,3.4-6.5,5.3c-1,1.3-1.5,2.4-1.5,3.5
		c0,0.2,0,0.3,0.1,0.6c0.2,0.6,1.3,1,3.4,1c2,0,3.8-0.2,5.5-0.5l0.1,0c0.4,0,0.8,0.3,1.2,0.8c0.2,0.2,0.2,0.4,0.3,0.6
		c0,0.1-0.1,0.2-0.1,0.2c-3.3,1.9-6.6,4.3-10,6.9c-6.3,5-9.4,8.9-9.5,11.8c0,0.3,0,0.6,0.1,0.9c0.2,0.5,0.7,0.8,1.6,0.8
		c1.9,0,4.9-0.9,9.1-2.8c0.5-0.2,0.9-0.4,1.2-0.6c5.5-2.9,11.5-7,17.7-12.5c0.2-0.2,0.5-0.1,1,0.2c0.1,0.1,0.2,0.1,0.2,0.2
		c0.4,0.4,0.6,0.7,0.5,1c0,0,0,0.1-0.1,0.1c-6.3,5.5-12.3,9.7-17.8,12.6c-4.2,2.2-7.7,3.3-10.5,3.3c-1,0-1.8-0.1-2.4-0.4
		c-1.6-0.8-2.5-1.9-2.5-3.5c0-0.5,0.1-1.1,0.3-1.7c1.1-3.5,5.1-7.7,12-12.8c1.4-1,2.8-1.9,4.2-2.9h-0.4c-3.3,0-5.5-0.7-6.5-2.2
		c-0.2-0.4-0.4-0.8-0.5-1.2c0-0.2-0.1-0.4-0.1-0.7c0-2,1.3-4.1,4-6.4c2.4-2,5-3.5,7.9-4.6c1.7-0.6,3.1-0.9,4.3-0.9h0.1
		c1.2,0,2.1,0.4,2.8,1.1c0.3,0.3,0.5,0.7,0.6,1.1c0,0.2,0.1,0.4,0.1,0.5c0,1.3-0.9,2.8-2.8,4.6C63.7-321.1,63.2-320.7,62.7-320.4z"
		/>
	<polyline class="st5" points="66.3,-330.3 84.5,-348.5 146.5,-286.5 116.8,-256.7 	"/>
	<polyline class="st5" points="96.5,-236.4 84.5,-224.4 22.5,-286.5 47.4,-311.4 	"/>
</g>
<g id="color_icon">
	<g>
		<path class="st6" d="M30.2-84.4c0,0,3.3-5.4,3.3-5.5c-3.8-8.2,6.3-19.1,11.5-22.7c11.7,2.3,29.6-3.9,29.3-4.6
			c-0.3-0.7-18.4,7-25.9,2.9c4.4,1.8,8.4,1.2,19.7-6c0.6-0.4,7.3-2.9,6.7-2.7c-9.5,3.8,17.6-8,21.2-12c0,0,0,0,0,0
			c2.9-2.2,5.5-2.6,7.9,0.7c0,0,0.1,0,0.1,0c-1.9-3.8-5.6-5.8-8.5-6.5c0,0,0,0,0,0c-21.1-6.1-37.6-2.8-50.9,7.1c0,0,0,0.1,0.1,0.1
			l10.7-3.1c0.1,0,0.1,0.1,0,0.1c-9.1,6.5-14.4,13.6-11,21.9c0,0,0,0,0,0.1C25-96.7,34.4-93.9,30.2-84.4z"/>
		<g>
			<path class="st7" d="M43.6-113.8c8.7-12.9,27-19,43.3-21.8C71.7-133.9,43.6-113.8,43.6-113.8z"/>
		</g>
	</g>
</g>
<g id="black-sign">
	<g>
		<path class="st8" d="M497.9-19.5c-0.1,0.1-0.2,0.1-0.3,0.1c-0.5,0-0.9-0.3-1.4-0.9c-0.2-0.3-0.3-0.5-0.4-0.7
			c0-0.1,0.1-0.2,0.1-0.3c1.4-1.1,2.6-2.3,3.5-3.6c0.8-1.1,1.2-2.1,1.2-2.8c-0.2,0-0.4,0-0.7,0c-2.4,0-5.4,1-8.9,3
			c-3.3,1.9-5.9,4-7.7,6.3c-1.2,1.5-1.8,2.9-1.8,4.1c0,0.2,0,0.4,0.1,0.7c0.2,0.8,1.5,1.1,4,1.1c2.4,0,4.5-0.2,6.5-0.6l0.2,0
			c0.5,0,1,0.3,1.5,0.9c0.2,0.3,0.3,0.5,0.3,0.7c0,0.1-0.1,0.2-0.2,0.3c-3.9,2.3-7.8,5-11.8,8.2c-7.4,5.9-11.1,10.6-11.2,13.9
			c0,0.3,0.1,0.7,0.2,1.1c0.2,0.6,0.9,0.9,1.9,0.9c2.2,0,5.8-1.1,10.7-3.3c0.6-0.3,1.1-0.5,1.4-0.7c6.6-3.4,13.5-8.3,21-14.8
			c0.2-0.2,0.6-0.1,1.2,0.3c0.1,0.1,0.2,0.1,0.2,0.2c0.5,0.5,0.7,0.9,0.6,1.2c0,0,0,0.1-0.1,0.1c-7.5,6.5-14.5,11.5-21.1,14.9
			c-5,2.6-9.1,3.9-12.4,3.9c-1.1,0-2.1-0.2-2.8-0.5c-1.9-0.9-2.9-2.3-2.9-4.2c0-0.6,0.1-1.2,0.3-2c1.3-4.1,6-9.2,14.2-15.1
			c1.6-1.2,3.3-2.3,5-3.4h-0.5c-3.9,0-6.5-0.9-7.7-2.6c-0.3-0.4-0.5-0.9-0.6-1.4c0-0.2-0.1-0.5-0.1-0.9c0-2.3,1.6-4.8,4.8-7.5
			c2.8-2.4,5.9-4.2,9.4-5.4c2-0.7,3.7-1.1,5.1-1.1h0.1c1.4,0,2.5,0.4,3.3,1.3c0.4,0.4,0.6,0.8,0.7,1.3c0,0.2,0.1,0.4,0.1,0.5
			c0,1.5-1.1,3.3-3.3,5.4C498.9-20.4,498.4-19.9,497.9-19.5z"/>
		<path class="st8" d="M518.3-5.9c0.1-0.1,0.2-0.1,0.3-0.1c0.4,0,0.8,0.3,1.3,0.9c0.2,0.3,0.3,0.5,0.3,0.7c0,0.2-0.1,0.3-0.1,0.3
			c-1,0.7-3.2,3-6.5,6.8c-3.5,4-5.8,6.5-6.9,7.4c-0.7,0.6-1.2,0.9-1.5,0.9H505c-1.7,0-2.6-1.1-2.6-3.3c0-3.8,3.4-13.9,10.2-30.3
			c0.2-0.5,0.5-1.1,0.8-1.9c1.3-3.2,2.1-5.1,2.3-5.6c0.1-0.1,0.2-0.2,0.3-0.2c0.5,0,0.9,0.3,1.4,0.8c0.2,0.3,0.4,0.5,0.4,0.8
			c0,0.4-0.5,1.7-1.4,3.9c-0.4,0.8-0.7,1.5-0.9,2c-5.1,12.4-8.3,21.1-9.8,26.1c-0.7,2.5-1.1,4.4-1.1,5.7c1.4-0.9,3.6-3.2,6.7-6.8
			c3.2-3.7,5.2-6,6.1-7C517.7-5.3,518-5.7,518.3-5.9z"/>
		<path class="st8" d="M520.2-10.1c0.1-0.1,0.2-0.2,0.3-0.2c0.4,0,0.9,0.3,1.4,0.8c0.2,0.3,0.4,0.5,0.4,0.7c0,0.1,0,0.1-0.1,0.2
			c-1.8,3.7-2.7,6.6-2.9,8.7c0,0.2,0,0.4,0,0.5c0,0.3,0,0.6,0.1,0.9h0.1c1.7,0,4.2-1.7,7.4-5.1c0.8-0.9,1.6-1.7,2.2-2.4
			c0.1-0.1,0.1-0.1,0.2-0.1c0.3,0,0.7,0.3,1.1,0.9c0.2,0.3,0.3,0.6,0.3,0.9c0,0.1-0.1,0.2-0.1,0.3c-4.1,4.9-7.4,7.3-9.8,7.4
			c-0.2,0-0.5,0-0.8-0.1c-1-0.3-1.7-0.9-2.2-1.7c-0.3-0.6-0.5-1.3-0.5-2.2C517.3-2.8,518.2-6,520.2-10.1z M523.6-11.5
			c-0.1,0.1-0.2,0.2-0.3,0.2c-0.4,0-0.9-0.3-1.4-0.8c-0.2-0.3-0.4-0.6-0.4-0.8c0-0.1,0-0.1,0.1-0.2l2.5-4c0.1-0.1,0.2-0.2,0.4-0.2
			c0.5,0,0.9,0.3,1.4,0.8c0.2,0.3,0.3,0.5,0.4,0.7c0,0.1,0,0.1-0.1,0.2L523.6-11.5z"/>
		<path class="st8" d="M546-6c0.1-0.1,0.2-0.1,0.4-0.1c0.5,0,0.9,0.3,1.4,0.8c0.2,0.2,0.3,0.5,0.3,0.6c0,0.1-0.1,0.2-0.1,0.3
			c-4.7,4.7-9.8,7.9-15.2,9.8c-0.9,0.3-1.9,0.6-2.8,0.8c0.8,1.5,1.2,3.5,1.2,6c0,3.3-0.6,6.3-1.7,8.9c-0.8,1.9-1.7,3.1-2.7,3.5
			c-0.4,0.1-0.7,0.2-1,0.2c-1.1,0-2.1-0.7-2.9-2c-0.5-0.9-0.8-1.7-0.8-2.6v-0.5c0-4.1,1.5-10.5,4.4-19c2.7-7.8,5.4-14.4,8.3-19.7
			c0.8-1.5,1.6-2.8,2.3-3.8c1.4-1.9,2.7-2.9,3.7-2.9c0.2,0,0.3,0,0.3,0c0.9,0.2,1.7,0.7,2.3,1.6c0,0.1,0.1,0.1,0.1,0.2
			c0.3,0.5,0.5,1.2,0.5,1.9c0,2.5-1.6,5.9-4.8,10c-2.3,3-4.6,5.4-7,7.2c-0.5,0.3-0.9,0.6-1.2,0.9c-1.1,3.1-2.1,5.7-2.8,8
			c5.6-1.3,10.7-3.9,15.4-7.9C544.5-4.5,545.2-5.2,546-6z M527.6,18.2c0.9-2.7,1.3-5.3,1.3-7.8c0-2.2-0.4-3.8-1.1-4.8
			c-2.1,6.7-3.2,11.7-3.4,15c0,0.2,0,0.3,0,0.5c0,0.5,0.1,1,0.2,1.5c0.1,0.2,0.3,0.2,0.8-0.2C526.1,21.6,526.9,20.2,527.6,18.2z
			 M533.3-9.3c1.7-1.7,3.5-3.9,5.3-6.6c2.2-3.2,3.3-5.7,3.3-7.4c0,0,0-0.1,0-0.2c0-0.1,0-0.1,0-0.2c-1.7,0.8-4.1,4.7-7.3,11.6
			C534-11.1,533.6-10.2,533.3-9.3z"/>
		<path class="st8" d="M591.2-23.9c-0.5,0-0.9-0.3-1.4-0.9c-0.2-0.3-0.3-0.5-0.4-0.7c0-0.1,0-0.2,0.1-0.2c2.1-2,3.2-3.3,3.2-4
			c0-0.4-0.5-0.6-1.3-0.6c-1,0-2.4,0.2-4.3,0.6c-5.1,1-10.2,3-15,6c-0.5,0.3-0.9,0.6-1.4,0.9c-3.3,2.1-5.7,4.3-7.2,6.4
			c-0.9,1.3-1.4,2.5-1.4,3.5c0,0.3,0,0.5,0.1,0.7c0.2,1.2,1.5,2.3,3.8,3.3c0.4,0.2,2.2,0.9,5.4,1.9c3.5,1.2,5.9,2.5,7.4,3.8
			c1.5,1.4,2.2,3.1,2.2,5c0,2.3-1.4,4.6-4.2,6.7c-2.5,2-5.4,3.3-8.7,4.1c-1.3,0.3-2.4,0.4-3.5,0.4c-0.6,0-1.1-0.1-1.7-0.2
			c-2.5-0.4-4.2-1.7-5.1-3.6c-0.1-0.2-0.1-0.3-0.1-0.4c0-0.2,0.2-0.3,0.4-0.3c0.5,0,1,0.3,1.4,0.8c0.1,0.2,0.2,0.3,0.3,0.5
			c0.3,0.6,1,1,2.1,1.2c0.4,0.1,0.9,0.1,1.5,0.1c2.6,0,5.4-0.8,8.5-2.4c3-1.6,5.1-3.4,6.2-5.4c0.5-1,0.8-1.9,0.8-2.8
			c0-1.8-1.1-3.3-3.3-4.4c-0.9-0.4-2.8-1.2-5.7-2.2c-3.3-1.2-5.6-2.3-7-3.4c-0.8-0.7-1.5-1.4-2-2.2c-0.5-0.8-0.8-1.6-0.8-2.5
			c0-2.7,2.2-5.6,6.5-8.9c0.7-0.6,1.5-1.1,2.3-1.6c4.7-3,9.7-5.2,14.9-6.5c0.6-0.1,1.2-0.3,1.7-0.4c2-0.4,3.4-0.6,4.3-0.6
			c1.8,0,3.1,0.4,4,1.3c0.5,0.5,0.8,1.1,0.8,1.8c0,1.4-0.9,3-2.7,4.8l-0.3,0.3C591.4-24,591.3-23.9,591.2-23.9z"/>
		<path class="st8" d="M595.8-7.4c-0.2,0.3-0.6,0.3-1.3-0.2c-0.1-0.1-0.2-0.2-0.3-0.2c-1.6,0.4-3,1.3-4.3,2.6
			c-1.1,1.1-1.7,2.2-1.7,3.3c0,0.2,0,0.5,0.1,0.7c0.8-0.1,1.8-0.6,3.2-1.7c1.4-1.1,2.4-1.9,3-2.6c0.6-0.6,1.2-1.2,1.7-1.8l0,0
			c0.1-0.2,0.3-0.2,0.5-0.2c0.5,0,0.9,0.3,1.4,1c0.2,0.2,0.2,0.4,0.2,0.6c0,0.1,0,0.1-0.1,0.1c-0.1,0.9-0.2,1.7-0.2,2.3
			c0,0.6,0.1,1.2,0.2,1.6c0.1,0.2,0.3,0.4,0.7,0.4c1.3,0,4.3-1.5,9-4.4c0.1-0.1,0.2-0.1,0.3-0.1c0.4,0,0.9,0.3,1.3,0.9
			c0.2,0.3,0.3,0.5,0.3,0.7c0,0.1-0.1,0.2-0.2,0.3c-0.2,0.2-0.6,0.4-1.2,0.8c-2.8,1.8-5,2.9-6.4,3.4c-0.7,0.2-1.4,0.3-1.9,0.3
			c-0.2,0-0.6,0-0.9-0.1c-1.9-0.5-3-1.7-3.3-3.7c-2.9,2.7-5.1,4.1-6.7,4.1h-0.3c-1-0.1-1.9-0.7-2.5-1.7c-0.2-0.3-0.4-0.7-0.5-1
			c-0.1-0.3-0.1-0.6-0.1-1c0-1.7,1-3.3,2.9-4.8c1.1-0.9,2.3-1.5,3.5-1.9c0.3-0.1,0.6-0.1,0.9-0.1c0.8,0,1.5,0.4,2.1,1
			C595.9-8.3,596-7.8,595.8-7.4z"/>
		<path class="st8" d="M623.2-5.8c0.3-0.3,0.7-0.1,1.2,0.4c0.5,0.5,0.7,1,0.5,1.3c0,0-0.1,0-0.1,0.1c-0.2,0.1-1.5,1.6-4.1,4.4
			c-4.4,4.9-7.5,7.6-9.2,8c-0.4,0.1-0.7,0.1-1,0c-0.7-0.2-1.2-0.7-1.6-1.3c-0.8-1.2,0.1-4,2.6-8.5c0.2-0.3,0.5-0.9,0.8-1.5
			c0.5-0.9,0.8-1.5,1-1.9C610.9-4,609-4.1,607.6-5c-1.3-0.9-1.8-2.1-1.5-3.8c0.2-1.3,0.8-2.3,1.7-2.9c0.3-0.2,0.6-0.4,0.9-0.5
			c0.8-0.2,1.6,0,2.4,0.9c0.4,0.5,0.7,1,0.8,1.5c0.2,0.9-0.1,2-0.7,3.4c0.2,0,0.5-0.1,0.9-0.3c1-0.4,1.7-0.5,1.9-0.5
			c0.9,0.1,1.6,0.6,2,1.5c0.2,0.6-0.5,2.4-2.1,5.5c-1.7,3.1-2.7,5.1-3,5.8c-0.2,0.4-0.3,0.8-0.3,1.1c1.4-0.6,4-3.1,8-7.4
			C621.3-3.7,622.8-5.4,623.2-5.8z M608.2-6.2c0.9-1.5,1.5-2.7,1.7-3.8c-0.5,0.4-0.9,1-1.2,1.7c-0.2,0.4-0.4,1-0.5,1.6
			C608.1-6.4,608.1-6.2,608.2-6.2z"/>
		<path class="st8" d="M625.1-10.1c0.1-0.1,0.2-0.2,0.3-0.2c0.4,0,0.9,0.3,1.4,0.8c0.2,0.3,0.4,0.5,0.4,0.7c0,0.1,0,0.1-0.1,0.2
			c-1.8,3.7-2.7,6.6-2.9,8.7c0,0.2,0,0.4,0,0.5c0,0.3,0,0.6,0.1,0.9h0.1c1.7,0,4.2-1.7,7.4-5.1c0.8-0.9,1.6-1.7,2.2-2.4
			c0.1-0.1,0.1-0.1,0.2-0.1c0.3,0,0.7,0.3,1.1,0.9c0.2,0.3,0.3,0.6,0.3,0.9c0,0.1-0.1,0.2-0.1,0.3c-4.1,4.9-7.4,7.3-9.8,7.4
			c-0.2,0-0.5,0-0.8-0.1c-1-0.3-1.7-0.9-2.2-1.7c-0.3-0.6-0.5-1.3-0.5-2.2C622.1-2.8,623.1-6,625.1-10.1z M628.5-11.5
			c-0.1,0.1-0.2,0.2-0.3,0.2c-0.4,0-0.9-0.3-1.4-0.8c-0.2-0.3-0.4-0.6-0.4-0.8c0-0.1,0-0.1,0.1-0.2l2.5-4c0.1-0.1,0.2-0.2,0.4-0.2
			c0.5,0,0.9,0.3,1.4,0.8c0.2,0.3,0.3,0.5,0.4,0.7c0,0.1,0,0.1-0.1,0.2L628.5-11.5z"/>
		<path class="st8" d="M643-30.1c0.1-0.1,0.2-0.2,0.4-0.2c0.4,0,0.9,0.3,1.4,0.8c0.3,0.4,0.4,0.7,0.4,0.9l-5,12.6
			c-2.6,6.8-4.6,12.1-5.7,15.8c2.4-3.7,3.7-5.6,3.8-5.8c2.1-3,3.6-4.7,4.5-5.2c0.2-0.1,0.4-0.2,0.6-0.2c0.7,0,1.2,0.3,1.7,1
			c0.2,0.2,0.3,0.4,0.3,0.6c0,0.1-0.1,0.2-0.1,0.2c-0.1,0-0.1,0-0.2,0c-0.3,0-0.7,0.2-1.2,0.7c-0.9,0.9-2.3,2.7-4.1,5.4
			c0,0,0,0.1,0,0.2c0,0.2,0,0.3,0,0.4c0,1.5,0.3,2.5,0.8,2.8c0.3,0.2,0.6,0.3,1,0.3c1.6,0,4-1.2,7.1-3.5c1.4-1.1,2.4-2,3.1-2.6
			c0.1-0.1,0.1-0.1,0.2-0.1c0.4,0,0.8,0.3,1.2,0.9c0.2,0.3,0.3,0.6,0.3,0.9c0,0.1,0,0.2-0.1,0.3c-1.7,1.9-3.7,3.5-5.8,4.6
			c-1.7,0.9-3.2,1.4-4.6,1.4c-1,0-2-0.3-2.8-0.9c-0.8-0.5-1.4-1.3-1.8-2.3c-2.2,3.3-3.6,5.4-4.3,6.1c-0.5,0.6-0.9,0.9-1.2,0.9
			c-1.1,0-1.7-0.5-1.9-1.4c0-0.2,0-0.3,0-0.5c0-2.4,4-13.7,12.1-33.9L643-30.1z"/>
		<path class="st8" d="M660.1-7.4c-0.2,0.3-0.6,0.3-1.3-0.2c-0.1-0.1-0.2-0.2-0.3-0.2c-1.6,0.4-3,1.3-4.3,2.6
			c-1.1,1.1-1.7,2.2-1.7,3.3c0,0.2,0,0.5,0.1,0.7c0.8-0.1,1.8-0.6,3.2-1.7s2.4-1.9,3-2.6c0.6-0.6,1.2-1.2,1.7-1.8l0,0
			c0.1-0.2,0.3-0.2,0.5-0.2c0.5,0,0.9,0.3,1.4,1c0.2,0.2,0.2,0.4,0.2,0.6c0,0.1,0,0.1-0.1,0.1c-0.1,0.9-0.2,1.7-0.2,2.3
			c0,0.6,0.1,1.2,0.2,1.6c0.1,0.2,0.3,0.4,0.7,0.4c1.3,0,4.3-1.5,9-4.4c0.1-0.1,0.2-0.1,0.3-0.1c0.4,0,0.9,0.3,1.3,0.9
			c0.2,0.3,0.3,0.5,0.3,0.7c0,0.1-0.1,0.2-0.2,0.3c-0.2,0.2-0.6,0.4-1.2,0.8c-2.8,1.8-5,2.9-6.4,3.4c-0.7,0.2-1.4,0.3-1.9,0.3
			c-0.2,0-0.6,0-0.9-0.1c-1.9-0.5-3-1.7-3.3-3.7c-2.9,2.7-5.1,4.1-6.7,4.1h-0.3c-1-0.1-1.9-0.7-2.5-1.7c-0.2-0.3-0.4-0.7-0.5-1
			c-0.1-0.3-0.1-0.6-0.1-1c0-1.7,1-3.3,2.9-4.8c1.2-0.9,2.3-1.5,3.5-1.9c0.3-0.1,0.6-0.1,0.9-0.1c0.8,0,1.5,0.4,2.1,1
			C660.1-8.3,660.2-7.8,660.1-7.4z"/>
		<path class="st8" d="M674.8-10.2c0.2-0.3,0.7-0.2,1.3,0.3c0.6,0.5,0.9,0.9,0.8,1.2c0,0,0,0.1-0.1,0.1c-2.4,3.6-3.6,6.2-3.6,7.8
			c1.2-0.3,2.6-1.3,4.3-2.9c1.9-1.7,3.3-3.5,4.4-5.4c0.3-0.6,0.6-1.1,0.7-1.6c0.1-0.2,0.3-0.2,0.6-0.2c0.5,0.1,1,0.4,1.4,0.9
			c0.2,0.3,0.3,0.6,0.2,0.8c-0.4,1-1.1,3.4-2.1,7.1c-0.2,0.9-0.4,1.6-0.6,2.1c1.9-1.3,5-3.3,9.3-6c0.2-0.1,0.6,0,1.1,0.2
			c1,0.4,1.1,1,0.5,1.6c-0.2,0.2-0.4,0.3-0.6,0.5c-4.7,2.9-8.5,5.4-11.5,7.6c-0.1,0.2-0.2,0.6-0.4,1.1c-2.6,8.4-5,14.1-7.4,17.1
			c-2.5,3.1-4.8,3.6-7.1,1.5c-3.4-3.3-2.1-7.9,3.8-13.9c2.3-2.3,5.2-4.8,8.9-7.4c0.3-1.1,0.8-2.8,1.5-5.1c-0.3,0.4-0.6,0.6-0.8,0.8
			h0c-1.8,1.6-3.3,2.6-4.5,3c-1,0.3-2,0.1-2.9-0.8c-0.4-0.3-0.6-0.7-0.8-1.1c-0.2-0.5-0.3-1.2-0.2-2C671.5-4.8,672.7-7.2,674.8-10.2
			z M670.3,21.9c2.2-2.4,4.7-7.5,7.4-15.3c-6.1,4.8-9.7,8.8-10.8,12.1c-0.6,1.8-0.4,3.3,0.6,4.4C668.1,23.6,669,23.2,670.3,21.9z"/>
		<path class="st8" d="M700.1-7.4c-0.2,0.3-0.6,0.3-1.3-0.2c-0.1-0.1-0.2-0.2-0.3-0.2c-1.6,0.4-3,1.3-4.3,2.6
			c-1.1,1.1-1.7,2.2-1.7,3.3c0,0.2,0,0.5,0.1,0.7c0.8-0.1,1.8-0.6,3.2-1.7s2.4-1.9,3-2.6c0.6-0.6,1.2-1.2,1.7-1.8l0,0
			c0.1-0.2,0.3-0.2,0.5-0.2c0.5,0,0.9,0.3,1.4,1c0.2,0.2,0.2,0.4,0.2,0.6c0,0.1,0,0.1-0.1,0.1c-0.1,0.9-0.2,1.7-0.2,2.3
			c0,0.6,0.1,1.2,0.2,1.6c0.1,0.2,0.3,0.4,0.7,0.4c1.3,0,4.3-1.5,9-4.4c0.1-0.1,0.2-0.1,0.3-0.1c0.4,0,0.9,0.3,1.3,0.9
			c0.2,0.3,0.3,0.5,0.3,0.7c0,0.1-0.1,0.2-0.2,0.3c-0.2,0.2-0.6,0.4-1.2,0.8c-2.8,1.8-5,2.9-6.4,3.4c-0.7,0.2-1.4,0.3-1.9,0.3
			c-0.2,0-0.6,0-0.9-0.1c-1.9-0.5-3-1.7-3.3-3.7c-2.9,2.7-5.1,4.1-6.7,4.1h-0.3c-1-0.1-1.9-0.7-2.5-1.7c-0.2-0.3-0.4-0.7-0.5-1
			c-0.1-0.3-0.1-0.6-0.1-1c0-1.7,1-3.3,2.9-4.8c1.2-0.9,2.3-1.5,3.5-1.9c0.3-0.1,0.6-0.1,0.9-0.1c0.8,0,1.5,0.4,2.1,1
			C700.2-8.3,700.3-7.8,700.1-7.4z"/>
	</g>
</g>
<g id="black_icon">
	<g>
		<path class="st8" d="M475.5-85.2c0,0,3.3-5.4,3.3-5.5c-3.8-8.2,6.3-19.1,11.5-22.7c11.7,2.3,29.6-3.9,29.3-4.6
			c-0.3-0.7-18.4,7-25.9,2.9c4.4,1.8,8.4,1.2,19.7-6c0.6-0.4,7.3-2.9,6.7-2.7c-9.5,3.8,17.6-8,21.2-12c0,0,0,0,0,0
			c2.9-2.2,5.5-2.6,7.9,0.7c0,0,0.1,0,0.1,0c-1.9-3.8-5.6-5.8-8.5-6.5c0,0,0,0,0,0c-21.1-6.1-37.6-2.8-50.9,7.1c0,0,0,0.1,0.1,0.1
			l10.7-3.1c0.1,0,0.1,0.1,0,0.1c-9.1,6.5-14.4,13.6-11,21.9c0,0,0,0,0,0.1C470.3-97.6,479.7-94.7,475.5-85.2z"/>
		<g>
			<path class="st1" d="M488.9-114.6c8.7-12.9,27-19,43.3-21.8C517-134.7,488.9-114.6,488.9-114.6z"/>
		</g>
	</g>
</g>
<g id="color-sign_00000019657811489812907720000004120800774264524447_">
	<g id="color-sign_00000028287463281970745030000002874543556397561732_">
		<path class="st9" d="M55.4,137.8c-0.1,0.1-0.2,0.1-0.3,0.1c-0.5,0-0.9-0.3-1.4-0.9c-0.2-0.3-0.3-0.5-0.4-0.7
			c0-0.1,0.1-0.2,0.1-0.3c1.4-1.1,2.6-2.3,3.5-3.6c0.8-1.1,1.2-2.1,1.2-2.8c-0.2,0-0.4,0-0.7,0c-2.4,0-5.4,1-8.9,3
			c-3.3,1.9-5.9,4-7.7,6.3c-1.2,1.5-1.8,2.9-1.8,4.1c0,0.2,0,0.4,0.1,0.7c0.2,0.8,1.5,1.1,4,1.1c2.4,0,4.5-0.2,6.5-0.6l0.2,0
			c0.5,0,1,0.3,1.5,0.9c0.2,0.3,0.3,0.5,0.3,0.7c0,0.1-0.1,0.2-0.2,0.3c-3.9,2.3-7.8,5-11.8,8.2c-7.4,5.9-11.1,10.6-11.2,13.9
			c0,0.3,0.1,0.7,0.2,1.1c0.2,0.6,0.9,0.9,1.9,0.9c2.2,0,5.8-1.1,10.7-3.3c0.6-0.3,1.1-0.5,1.4-0.7c6.6-3.4,13.5-8.3,21-14.8
			c0.2-0.2,0.6-0.1,1.2,0.3c0.1,0.1,0.2,0.1,0.2,0.2c0.5,0.5,0.7,0.9,0.6,1.2c0,0,0,0.1-0.1,0.1c-7.5,6.5-14.5,11.5-21.1,14.9
			c-5,2.6-9.1,3.9-12.4,3.9c-1.1,0-2.1-0.2-2.8-0.5c-1.9-0.9-2.9-2.3-2.9-4.2c0-0.6,0.1-1.2,0.3-2c1.3-4.1,6-9.2,14.2-15.1
			c1.6-1.2,3.3-2.3,5-3.4h-0.5c-3.9,0-6.5-0.9-7.7-2.6c-0.3-0.4-0.5-0.9-0.6-1.4c0-0.2-0.1-0.5-0.1-0.9c0-2.3,1.6-4.8,4.8-7.5
			c2.8-2.4,5.9-4.2,9.4-5.4c2-0.7,3.7-1.1,5.1-1.1h0.1c1.4,0,2.5,0.4,3.3,1.3c0.4,0.4,0.6,0.8,0.7,1.3c0,0.2,0.1,0.4,0.1,0.5
			c0,1.5-1.1,3.3-3.3,5.4C56.5,136.9,56,137.4,55.4,137.8z"/>
		<path class="st9" d="M75.9,151.3c0.1-0.1,0.2-0.1,0.3-0.1c0.4,0,0.8,0.3,1.3,0.9c0.2,0.3,0.3,0.5,0.3,0.7c0,0.2-0.1,0.3-0.1,0.3
			c-1,0.7-3.2,3-6.5,6.8c-3.5,4-5.8,6.5-6.9,7.4c-0.7,0.6-1.2,0.9-1.5,0.9h-0.2c-1.7,0-2.6-1.1-2.6-3.3c0-3.8,3.4-13.9,10.2-30.3
			c0.2-0.5,0.5-1.1,0.8-1.9c1.3-3.2,2.1-5.1,2.3-5.6c0.1-0.1,0.2-0.2,0.3-0.2c0.5,0,0.9,0.3,1.4,0.8c0.2,0.3,0.4,0.5,0.4,0.8
			c0,0.4-0.5,1.7-1.4,3.9c-0.4,0.8-0.7,1.5-0.9,2c-5.1,12.4-8.3,21.1-9.8,26.1c-0.7,2.5-1.1,4.4-1.1,5.7c1.4-0.9,3.6-3.2,6.7-6.8
			c3.2-3.7,5.2-6,6.1-7C75.3,151.9,75.6,151.6,75.9,151.3z"/>
		<path class="st9" d="M77.8,147.1c0.1-0.1,0.2-0.2,0.3-0.2c0.4,0,0.9,0.3,1.4,0.8c0.2,0.3,0.4,0.5,0.4,0.7c0,0.1,0,0.1-0.1,0.2
			c-1.8,3.7-2.7,6.6-2.9,8.7c0,0.2,0,0.4,0,0.5c0,0.3,0,0.6,0.1,0.9h0.1c1.7,0,4.2-1.7,7.4-5.1c0.8-0.9,1.6-1.7,2.2-2.4
			c0.1-0.1,0.1-0.1,0.2-0.1c0.3,0,0.7,0.3,1.1,0.9c0.2,0.3,0.3,0.6,0.3,0.9c0,0.1-0.1,0.2-0.1,0.3c-4.1,4.9-7.4,7.3-9.8,7.4
			c-0.2,0-0.5,0-0.8-0.1c-1-0.3-1.7-0.9-2.2-1.7c-0.3-0.6-0.5-1.3-0.5-2.2C74.8,154.4,75.8,151.3,77.8,147.1z M81.1,145.8
			c-0.1,0.1-0.2,0.2-0.3,0.2c-0.4,0-0.9-0.3-1.4-0.8c-0.2-0.3-0.4-0.6-0.4-0.8c0-0.1,0-0.1,0.1-0.2l2.5-4c0.1-0.1,0.2-0.2,0.4-0.2
			c0.5,0,0.9,0.3,1.4,0.8c0.2,0.3,0.3,0.5,0.4,0.7c0,0.1,0,0.1-0.1,0.2L81.1,145.8z"/>
		<path class="st9" d="M103.6,151.3c0.1-0.1,0.2-0.1,0.4-0.1c0.5,0,0.9,0.3,1.4,0.8c0.2,0.2,0.3,0.5,0.3,0.6c0,0.1-0.1,0.2-0.1,0.3
			c-4.7,4.7-9.8,7.9-15.2,9.8c-0.9,0.3-1.9,0.6-2.8,0.8c0.8,1.5,1.2,3.5,1.2,6c0,3.3-0.6,6.3-1.7,8.9c-0.8,1.9-1.7,3.1-2.7,3.5
			c-0.4,0.1-0.7,0.2-1,0.2c-1.1,0-2.1-0.7-2.9-2c-0.5-0.9-0.8-1.7-0.8-2.6v-0.5c0-4.1,1.5-10.5,4.4-19c2.7-7.8,5.4-14.4,8.3-19.7
			c0.8-1.5,1.6-2.8,2.3-3.8c1.4-1.9,2.7-2.9,3.7-2.9c0.2,0,0.3,0,0.3,0c0.9,0.2,1.7,0.7,2.3,1.6c0,0.1,0.1,0.1,0.1,0.2
			c0.3,0.5,0.5,1.2,0.5,1.9c0,2.5-1.6,5.9-4.8,10c-2.3,3-4.6,5.4-7,7.2c-0.5,0.3-0.9,0.6-1.2,0.9c-1.1,3.1-2.1,5.7-2.8,8
			c5.6-1.3,10.7-3.9,15.4-7.9C102,152.8,102.8,152,103.6,151.3z M85.1,175.5c0.9-2.7,1.3-5.3,1.3-7.8c0-2.2-0.4-3.8-1.1-4.8
			c-2.1,6.7-3.2,11.7-3.4,15c0,0.2,0,0.3,0,0.5c0,0.5,0.1,1,0.2,1.5c0.1,0.2,0.3,0.2,0.8-0.2C83.7,178.8,84.5,177.5,85.1,175.5z
			 M90.8,147.9c1.7-1.7,3.5-3.9,5.3-6.6c2.2-3.2,3.3-5.7,3.3-7.4c0,0,0-0.1,0-0.2c0-0.1,0-0.1,0-0.2c-1.7,0.8-4.1,4.7-7.3,11.6
			C91.6,146.1,91.2,147,90.8,147.9z"/>
		<path class="st9" d="M148.8,133.3c-0.5,0-0.9-0.3-1.4-0.9c-0.2-0.3-0.3-0.5-0.4-0.7c0-0.1,0-0.2,0.1-0.2c2.1-2,3.2-3.3,3.2-4
			c0-0.4-0.5-0.6-1.3-0.6c-1,0-2.4,0.2-4.3,0.6c-5.1,1-10.2,3-15,6c-0.5,0.3-0.9,0.6-1.4,0.9c-3.3,2.1-5.7,4.3-7.2,6.4
			c-0.9,1.3-1.4,2.5-1.4,3.5c0,0.3,0,0.5,0.1,0.7c0.2,1.2,1.5,2.3,3.8,3.3c0.4,0.2,2.2,0.9,5.4,1.9c3.5,1.2,5.9,2.5,7.4,3.8
			c1.5,1.4,2.2,3.1,2.2,5c0,2.3-1.4,4.6-4.2,6.7c-2.5,2-5.4,3.3-8.7,4.1c-1.3,0.3-2.4,0.4-3.5,0.4c-0.6,0-1.1-0.1-1.7-0.2
			c-2.5-0.4-4.2-1.7-5.1-3.6c-0.1-0.2-0.1-0.3-0.1-0.4c0-0.2,0.2-0.3,0.4-0.3c0.5,0,1,0.3,1.4,0.8c0.1,0.2,0.2,0.3,0.3,0.5
			c0.3,0.6,1,1,2.1,1.2c0.4,0.1,0.9,0.1,1.5,0.1c2.6,0,5.4-0.8,8.5-2.4c3-1.6,5.1-3.4,6.2-5.4c0.5-1,0.8-1.9,0.8-2.8
			c0-1.8-1.1-3.3-3.3-4.4c-0.9-0.4-2.8-1.2-5.7-2.2c-3.3-1.2-5.6-2.3-7-3.4c-0.8-0.7-1.5-1.4-2-2.2c-0.5-0.8-0.8-1.6-0.8-2.5
			c0-2.7,2.2-5.6,6.5-8.9c0.7-0.6,1.5-1.1,2.3-1.6c4.7-3,9.7-5.2,14.9-6.5c0.6-0.1,1.2-0.3,1.7-0.4c2-0.4,3.4-0.6,4.3-0.6
			c1.8,0,3.1,0.4,4,1.3c0.5,0.5,0.8,1.1,0.8,1.8c0,1.4-0.9,3-2.7,4.8l-0.3,0.3C149,133.3,148.9,133.3,148.8,133.3z"/>
		<path class="st9" d="M153.4,149.9c-0.2,0.3-0.6,0.3-1.3-0.2c-0.1-0.1-0.2-0.2-0.3-0.2c-1.6,0.4-3,1.3-4.3,2.6
			c-1.1,1.1-1.7,2.2-1.7,3.3c0,0.2,0,0.5,0.1,0.7c0.8-0.1,1.8-0.6,3.2-1.7c1.4-1.1,2.4-1.9,3-2.6c0.6-0.6,1.2-1.2,1.7-1.8l0,0
			c0.1-0.2,0.3-0.2,0.5-0.2c0.5,0,0.9,0.3,1.4,1c0.2,0.2,0.2,0.4,0.2,0.6c0,0.1,0,0.1-0.1,0.1c-0.1,0.9-0.2,1.7-0.2,2.3
			c0,0.6,0.1,1.2,0.2,1.6c0.1,0.2,0.3,0.4,0.7,0.4c1.3,0,4.3-1.5,9-4.4c0.1-0.1,0.2-0.1,0.3-0.1c0.4,0,0.9,0.3,1.3,0.9
			c0.2,0.3,0.3,0.5,0.3,0.7c0,0.1-0.1,0.2-0.2,0.3c-0.2,0.2-0.6,0.4-1.2,0.8c-2.8,1.8-5,2.9-6.4,3.4c-0.7,0.2-1.4,0.3-1.9,0.3
			c-0.2,0-0.6,0-0.9-0.1c-1.9-0.5-3-1.7-3.3-3.7c-2.9,2.7-5.1,4.1-6.7,4.1h-0.3c-1-0.1-1.9-0.7-2.5-1.7c-0.2-0.3-0.4-0.7-0.5-1
			c-0.1-0.3-0.1-0.6-0.1-1c0-1.7,1-3.3,2.9-4.8c1.1-0.9,2.3-1.5,3.5-1.9c0.3-0.1,0.6-0.1,0.9-0.1c0.8,0,1.5,0.4,2.1,1
			C153.5,148.9,153.6,149.4,153.4,149.9z"/>
		<path class="st9" d="M180.7,151.5c0.3-0.3,0.7-0.1,1.2,0.4c0.5,0.5,0.7,1,0.5,1.3c0,0-0.1,0-0.1,0.1c-0.2,0.1-1.5,1.6-4.1,4.4
			c-4.4,4.9-7.5,7.6-9.2,8c-0.4,0.1-0.7,0.1-1,0c-0.7-0.2-1.2-0.7-1.6-1.3c-0.8-1.2,0.1-4,2.6-8.5c0.2-0.3,0.5-0.9,0.8-1.5
			c0.5-0.9,0.8-1.5,1-1.9c-2.5,0.8-4.4,0.7-5.7-0.3c-1.3-0.9-1.8-2.1-1.5-3.8c0.2-1.3,0.8-2.3,1.7-2.9c0.3-0.2,0.6-0.4,0.9-0.5
			c0.8-0.2,1.6,0,2.4,0.9c0.4,0.5,0.7,1,0.8,1.5c0.2,0.9-0.1,2-0.7,3.4c0.2,0,0.5-0.1,0.9-0.3c1-0.4,1.7-0.5,1.9-0.5
			c0.9,0.1,1.6,0.6,2,1.5c0.2,0.6-0.5,2.4-2.1,5.5c-1.7,3.1-2.7,5.1-3,5.8c-0.2,0.4-0.3,0.8-0.3,1.1c1.4-0.6,4-3.1,8-7.4
			C178.8,153.5,180.3,151.9,180.7,151.5z M165.7,151.1c0.9-1.5,1.5-2.7,1.7-3.8c-0.5,0.4-0.9,1-1.2,1.7c-0.2,0.4-0.4,1-0.5,1.6
			C165.7,150.9,165.7,151,165.7,151.1z"/>
		<path class="st9" d="M182.7,147.1c0.1-0.1,0.2-0.2,0.3-0.2c0.4,0,0.9,0.3,1.4,0.8c0.2,0.3,0.4,0.5,0.4,0.7c0,0.1,0,0.1-0.1,0.2
			c-1.8,3.7-2.7,6.6-2.9,8.7c0,0.2,0,0.4,0,0.5c0,0.3,0,0.6,0.1,0.9h0.1c1.7,0,4.2-1.7,7.4-5.1c0.8-0.9,1.6-1.7,2.2-2.4
			c0.1-0.1,0.1-0.1,0.2-0.1c0.3,0,0.7,0.3,1.1,0.9c0.2,0.3,0.3,0.6,0.3,0.9c0,0.1-0.1,0.2-0.1,0.3c-4.1,4.9-7.4,7.3-9.8,7.4
			c-0.2,0-0.5,0-0.8-0.1c-1-0.3-1.7-0.9-2.2-1.7c-0.3-0.6-0.5-1.3-0.5-2.2C179.7,154.4,180.7,151.3,182.7,147.1z M186,145.8
			c-0.1,0.1-0.2,0.2-0.3,0.2c-0.4,0-0.9-0.3-1.4-0.8c-0.2-0.3-0.4-0.6-0.4-0.8c0-0.1,0-0.1,0.1-0.2l2.5-4c0.1-0.1,0.2-0.2,0.4-0.2
			c0.5,0,0.9,0.3,1.4,0.8c0.2,0.3,0.3,0.5,0.4,0.7c0,0.1,0,0.1-0.1,0.2L186,145.8z"/>
		<path class="st9" d="M200.5,127.2c0.1-0.1,0.2-0.2,0.4-0.2c0.4,0,0.9,0.3,1.4,0.8c0.3,0.4,0.4,0.7,0.4,0.9l-5,12.6
			c-2.6,6.8-4.6,12.1-5.7,15.8c2.4-3.7,3.7-5.6,3.8-5.8c2.1-3,3.6-4.7,4.5-5.2c0.2-0.1,0.4-0.2,0.6-0.2c0.7,0,1.2,0.3,1.7,1
			c0.2,0.2,0.3,0.4,0.3,0.6c0,0.1-0.1,0.2-0.1,0.2c-0.1,0-0.1,0-0.2,0c-0.3,0-0.7,0.2-1.2,0.7c-0.9,0.9-2.3,2.7-4.1,5.4
			c0,0,0,0.1,0,0.2c0,0.2,0,0.3,0,0.4c0,1.5,0.3,2.5,0.8,2.8c0.3,0.2,0.6,0.3,1,0.3c1.6,0,4-1.2,7.1-3.5c1.4-1.1,2.4-2,3.1-2.6
			c0.1-0.1,0.1-0.1,0.2-0.1c0.4,0,0.8,0.3,1.2,0.9c0.2,0.3,0.3,0.6,0.3,0.9c0,0.1,0,0.2-0.1,0.3c-1.7,1.9-3.7,3.5-5.8,4.6
			c-1.7,0.9-3.2,1.4-4.6,1.4c-1,0-2-0.3-2.8-0.9c-0.8-0.5-1.4-1.3-1.8-2.3c-2.2,3.3-3.6,5.4-4.3,6.1c-0.5,0.6-0.9,0.9-1.2,0.9
			c-1.1,0-1.7-0.5-1.9-1.4c0-0.2,0-0.3,0-0.5c0-2.4,4-13.7,12.1-33.9L200.5,127.2z"/>
		<path class="st9" d="M217.6,149.9c-0.2,0.3-0.6,0.3-1.3-0.2c-0.1-0.1-0.2-0.2-0.3-0.2c-1.6,0.4-3,1.3-4.3,2.6
			c-1.1,1.1-1.7,2.2-1.7,3.3c0,0.2,0,0.5,0.1,0.7c0.8-0.1,1.8-0.6,3.2-1.7s2.4-1.9,3-2.6c0.6-0.6,1.2-1.2,1.7-1.8l0,0
			c0.1-0.2,0.3-0.2,0.5-0.2c0.5,0,0.9,0.3,1.4,1c0.2,0.2,0.2,0.4,0.2,0.6c0,0.1,0,0.1-0.1,0.1c-0.1,0.9-0.2,1.7-0.2,2.3
			c0,0.6,0.1,1.2,0.2,1.6c0.1,0.2,0.3,0.4,0.7,0.4c1.3,0,4.3-1.5,9-4.4c0.1-0.1,0.2-0.1,0.3-0.1c0.4,0,0.9,0.3,1.3,0.9
			c0.2,0.3,0.3,0.5,0.3,0.7c0,0.1-0.1,0.2-0.2,0.3c-0.2,0.2-0.6,0.4-1.2,0.8c-2.8,1.8-5,2.9-6.4,3.4c-0.7,0.2-1.4,0.3-1.9,0.3
			c-0.2,0-0.6,0-0.9-0.1c-1.9-0.5-3-1.7-3.3-3.7c-2.9,2.7-5.1,4.1-6.7,4.1H211c-1-0.1-1.9-0.7-2.5-1.7c-0.2-0.3-0.4-0.7-0.5-1
			c-0.1-0.3-0.1-0.6-0.1-1c0-1.7,1-3.3,2.9-4.8c1.2-0.9,2.3-1.5,3.5-1.9c0.3-0.1,0.6-0.1,0.9-0.1c0.8,0,1.5,0.4,2.1,1
			C217.7,148.9,217.8,149.4,217.6,149.9z"/>
		<path class="st9" d="M232.4,147c0.2-0.3,0.7-0.2,1.3,0.3c0.6,0.5,0.9,0.9,0.8,1.2c0,0,0,0.1-0.1,0.1c-2.4,3.6-3.6,6.2-3.6,7.8
			c1.2-0.3,2.6-1.3,4.3-2.9c1.9-1.7,3.3-3.5,4.4-5.4c0.3-0.6,0.6-1.1,0.7-1.6c0.1-0.2,0.3-0.2,0.6-0.2c0.5,0.1,1,0.4,1.4,0.9
			c0.2,0.3,0.3,0.6,0.2,0.8c-0.4,1-1.1,3.4-2.1,7.1c-0.2,0.9-0.4,1.6-0.6,2.1c1.9-1.3,5-3.3,9.3-6c0.2-0.1,0.6,0,1.1,0.2
			c1,0.4,1.1,1,0.5,1.6c-0.2,0.2-0.4,0.3-0.6,0.5c-4.7,2.9-8.5,5.4-11.5,7.6c-0.1,0.2-0.2,0.6-0.4,1.1c-2.6,8.4-5,14.1-7.4,17.1
			c-2.5,3.1-4.8,3.6-7.1,1.5c-3.4-3.3-2.1-7.9,3.8-13.9c2.3-2.3,5.2-4.8,8.9-7.4c0.3-1.1,0.8-2.8,1.5-5.1c-0.3,0.4-0.6,0.6-0.8,0.8
			h0c-1.8,1.6-3.3,2.6-4.5,3c-1,0.3-2,0.1-2.9-0.8c-0.4-0.3-0.6-0.7-0.8-1.1c-0.2-0.5-0.3-1.2-0.2-2
			C229.1,152.5,230.3,150,232.4,147z M227.8,179.2c2.2-2.4,4.7-7.5,7.4-15.3c-6.1,4.8-9.7,8.8-10.8,12.1c-0.6,1.8-0.4,3.3,0.6,4.4
			C225.7,180.9,226.6,180.5,227.8,179.2z"/>
		<path class="st9" d="M257.7,149.9c-0.2,0.3-0.6,0.3-1.3-0.2c-0.1-0.1-0.2-0.2-0.3-0.2c-1.6,0.4-3,1.3-4.3,2.6
			c-1.1,1.1-1.7,2.2-1.7,3.3c0,0.2,0,0.5,0.1,0.7c0.8-0.1,1.8-0.6,3.2-1.7s2.4-1.9,3-2.6c0.6-0.6,1.2-1.2,1.7-1.8l0,0
			c0.1-0.2,0.3-0.2,0.5-0.2c0.5,0,0.9,0.3,1.4,1c0.2,0.2,0.2,0.4,0.2,0.6c0,0.1,0,0.1-0.1,0.1c-0.1,0.9-0.2,1.7-0.2,2.3
			c0,0.6,0.1,1.2,0.2,1.6c0.1,0.2,0.3,0.4,0.7,0.4c1.3,0,4.3-1.5,9-4.4c0.1-0.1,0.2-0.1,0.3-0.1c0.4,0,0.9,0.3,1.3,0.9
			c0.2,0.3,0.3,0.5,0.3,0.7c0,0.1-0.1,0.2-0.2,0.3c-0.2,0.2-0.6,0.4-1.2,0.8c-2.8,1.8-5,2.9-6.4,3.4c-0.7,0.2-1.4,0.3-1.9,0.3
			c-0.2,0-0.6,0-0.9-0.1c-1.9-0.5-3-1.7-3.3-3.7c-2.9,2.7-5.1,4.1-6.7,4.1h-0.3c-1-0.1-1.9-0.7-2.5-1.7c-0.2-0.3-0.4-0.7-0.5-1
			c-0.1-0.3-0.1-0.6-0.1-1c0-1.7,1-3.3,2.9-4.8c1.2-0.9,2.3-1.5,3.5-1.9c0.3-0.1,0.6-0.1,0.9-0.1c0.8,0,1.5,0.4,2.1,1
			C257.8,148.9,257.9,149.4,257.7,149.9z"/>
	</g>
	<g id="Layer_7">
		
			<rect x="115.2" y="34.1" transform="matrix(0.7071 0.7071 -0.7071 0.7071 90.2979 -84.9594)" class="st10" width="64.9" height="64.9"/>
		<g>
			<path class="st1" d="M134.7,95.1c0,0,1.2-3.7,1.1-3.7c-4.4-4,0.4-12,3.3-14.9c8.6-0.6,19.8-7.1,19.4-7.4
				c-0.4-0.3-11.3,7-17.4,5.9c3.4,0.3,6.1-0.7,12.4-6.7c0.3-0.3,4.5-2.9,4.1-2.7c-5.8,3.7,10.6-7.5,12.2-10.4c0,0,0,0,0,0
				c1.5-1.7,3.3-2.4,5.6-0.9c0,0,0.1,0,0.1,0c-2.2-1.9-5.1-2.4-7.3-2.3c0,0,0,0,0,0c-15.9,0-26.7,4.6-33.9,12.4c0,0,0,0.1,0.1,0
				l6.8-3.5c0,0,0.1,0,0.1,0c-5,5.2-7.2,10.1-3,14.4c0,0,0,0,0,0C128.5,88.9,135.6,89,134.7,95.1z"/>
		</g>
		<g>
			<path class="st10" d="M137.8,76.1c3.4-8.8,14.8-15.3,25.6-19.6C153.2,60,137.8,76.1,137.8,76.1z"/>
		</g>
	</g>
</g>
</svg>
